<?xml version="1.0" standalone="no"?>
<!DOCTYPE svg PUBLIC "-//W3C//DTD SVG 20010904//EN"
 "http://www.w3.org/TR/2001/REC-SVG-20010904/DTD/svg10.dtd">
<svg version="1.0" xmlns="http://www.w3.org/2000/svg"
 width="700.000000pt" height="700.000000pt" viewBox="0 0 700.000000 700.000000"
 preserveAspectRatio="xMidYMid meet">
<metadata>
Created by potrace 1.14, written by Peter Selinger 2001-2017
</metadata>
<g transform="translate(0.000000,700.000000) scale(0.100000,-0.100000)"
fill="#000000" stroke="none">
<path d="M0 3500 l0 -3500 3500 0 3500 0 0 3500 0 3500 -3500 0 -3500 0 0
-3500z m5051 1481 c418 -95 682 -374 724 -763 l7 -68 -290 0 -289 0 -12 58
c-26 132 -116 247 -238 304 -58 28 -80 32 -173 36 -121 5 -187 -6 -266 -45
-124 -61 -184 -159 -184 -303 0 -133 43 -213 158 -292 68 -47 169 -89 412
-173 491 -168 667 -266 806 -446 101 -131 145 -275 146 -474 2 -308 -133 -555
-394 -722 -101 -64 -199 -103 -338 -135 -92 -20 -130 -23 -315 -22 -178 0
-226 3 -313 22 -473 103 -771 412 -799 830 l-6 92 284 0 284 0 13 -76 c30
-194 162 -342 357 -400 83 -25 277 -25 360 0 83 25 131 51 184 101 88 82 125
204 103 335 -21 125 -79 205 -205 284 -79 50 -115 65 -407 166 -366 126 -421
150 -566 245 -162 108 -265 242 -310 405 -26 92 -26 358 -2 450 62 229 244
425 495 530 79 33 205 67 295 80 103 15 380 4 479 -19z m-2544 -32 c363 -40
628 -206 758 -474 73 -150 90 -231 90 -430 0 -183 -12 -248 -71 -388 -92 -217
-296 -393 -544 -467 -152 -45 -220 -52 -612 -57 l-378 -5 0 -574 0 -574 -275
0 -275 0 0 1490 0 1490 605 0 c365 0 644 -4 702 -11z"/>
<path d="M1750 4050 l0 -471 353 3 c326 4 357 5 414 25 174 58 275 195 290
392 15 203 -69 381 -216 455 -103 53 -150 58 -508 63 l-333 5 0 -472z"/>
</g>
</svg>
